<svg width="68" height="28" viewBox="0 0 68 28" fill="none" xmlns="http://www.w3.org/2000/svg">
<path d="M9.10731 7.72063C8.88882 7.31816 8.5726 7.01343 8.15863 6.80645C7.75616 6.58797 7.27895 6.47872 6.72699 6.47872C5.77256 6.47872 5.00787 6.79495 4.43291 7.4274C3.85796 8.04835 3.57048 8.88204 3.57048 9.92846C3.57048 11.0439 3.86946 11.9178 4.46741 12.5503C5.07686 13.1712 5.91055 13.4817 6.96847 13.4817C7.69291 13.4817 8.30237 13.2977 8.79683 12.9297C9.30279 12.5618 9.67076 12.0328 9.90075 11.3429H6.15778V9.16952H12.5743V11.9121C12.3558 12.648 11.9821 13.3322 11.4531 13.9647C10.9357 14.5971 10.2745 15.1088 9.46953 15.4998C8.66459 15.8908 7.75616 16.0862 6.74424 16.0862C5.54833 16.0862 4.47891 15.8275 3.53598 15.3101C2.60455 14.7811 1.87436 14.0509 1.3454 13.1195C0.827937 12.188 0.569207 11.1244 0.569207 9.92846C0.569207 8.73255 0.827937 7.66888 1.3454 6.73745C1.87436 5.79453 2.60455 5.06433 3.53598 4.54687C4.46741 4.01791 5.53108 3.75343 6.72699 3.75343C8.17588 3.75343 9.39479 4.10415 10.3837 4.8056C11.3841 5.50705 12.0453 6.47872 12.3673 7.72063H9.10731ZM15.6915 5.37481C15.174 5.37481 14.7485 5.22532 14.4151 4.92634C14.0931 4.61587 13.9321 4.23639 13.9321 3.78793C13.9321 3.32796 14.0931 2.94849 14.4151 2.64951C14.7485 2.33904 15.174 2.1838 15.6915 2.1838C16.1974 2.1838 16.6114 2.33904 16.9334 2.64951C17.2668 2.94849 17.4336 3.32796 17.4336 3.78793C17.4336 4.23639 17.2668 4.61587 16.9334 4.92634C16.6114 5.22532 16.1974 5.37481 15.6915 5.37481ZM17.1576 6.37523V16H14.2081V6.37523H17.1576ZM22.2446 7.97936C22.5896 7.4504 23.0208 7.03643 23.5383 6.73745C24.0557 6.42698 24.6307 6.27174 25.2631 6.27174V9.39375H24.4524C23.7165 9.39375 23.1645 9.55474 22.7966 9.87672C22.4286 10.1872 22.2446 10.7392 22.2446 11.5326V16H19.2951V6.37523H22.2446V7.97936ZM38.954 6.27174C40.1499 6.27174 41.0986 6.63396 41.8 7.35841C42.513 8.08285 42.8695 9.08903 42.8695 10.3769V16H39.9372V10.7736C39.9372 10.1527 39.7704 9.67548 39.437 9.34201C39.115 8.99703 38.6665 8.82455 38.0916 8.82455C37.5166 8.82455 37.0624 8.99703 36.7289 9.34201C36.407 9.67548 36.246 10.1527 36.246 10.7736V16H33.3137V10.7736C33.3137 10.1527 33.1469 9.67548 32.8135 9.34201C32.4915 8.99703 32.043 8.82455 31.4681 8.82455C30.8931 8.82455 30.4389 8.99703 30.1054 9.34201C29.7835 9.67548 29.6225 10.1527 29.6225 10.7736V16H26.6729V6.37523H29.6225V7.58264C29.9214 7.18017 30.3124 6.86394 30.7954 6.63396C31.2783 6.39248 31.8245 6.27174 32.434 6.27174C33.1584 6.27174 33.8024 6.42698 34.3659 6.73745C34.9408 7.04793 35.3893 7.49065 35.7113 8.0656C36.0447 7.53664 36.4989 7.10543 37.0739 6.77195C37.6489 6.43848 38.2756 6.27174 38.954 6.27174ZM44.3458 11.1704C44.3458 10.1814 44.5298 9.31326 44.8978 8.56582C45.2773 7.81837 45.789 7.24342 46.4329 6.84095C47.0769 6.43848 47.7956 6.23724 48.589 6.23724C49.2675 6.23724 49.8597 6.37523 50.3656 6.65121C50.8831 6.92719 51.2798 7.28941 51.5558 7.73788V6.37523H54.5053V16H51.5558V14.6374C51.2683 15.0858 50.8658 15.448 50.3484 15.724C49.8424 16 49.2502 16.138 48.5718 16.138C47.7898 16.138 47.0769 15.9368 46.4329 15.5343C45.789 15.1203 45.2773 14.5396 44.8978 13.7922C44.5298 13.0332 44.3458 12.1593 44.3458 11.1704ZM51.5558 11.1876C51.5558 10.4517 51.3488 9.87097 50.9348 9.4455C50.5324 9.02003 50.0379 8.8073 49.4514 8.8073C48.865 8.8073 48.3648 9.02003 47.9508 9.4455C47.5483 9.85947 47.3471 10.4344 47.3471 11.1704C47.3471 11.9063 47.5483 12.4928 47.9508 12.9297C48.3648 13.3552 48.865 13.5679 49.4514 13.5679C50.0379 13.5679 50.5324 13.3552 50.9348 12.9297C51.3488 12.5043 51.5558 11.9236 51.5558 11.1876ZM62.5037 6.27174C63.6306 6.27174 64.5276 6.63971 65.1945 7.37566C65.873 8.1001 66.2122 9.10052 66.2122 10.3769V16H63.2799V10.7736C63.2799 10.1297 63.1132 9.62948 62.7797 9.27301C62.4462 8.91654 61.9978 8.7383 61.4343 8.7383C60.8708 8.7383 60.4224 8.91654 60.0889 9.27301C59.7554 9.62948 59.5887 10.1297 59.5887 10.7736V16H56.6392V6.37523H59.5887V7.65163C59.8877 7.22617 60.2901 6.89269 60.7961 6.65121C61.3021 6.39823 61.8713 6.27174 62.5037 6.27174Z" fill="#111111"/>
<path d="M5.3338 22.364V22.9526H4.36489V26H3.6356V22.9526H2.66669V22.364H5.3338ZM8.67887 22.9526V23.8642H9.90303V24.4425H8.67887V25.4062H10.0593V26H7.94958V22.3588H10.0593V22.9526H8.67887ZM12.6286 24.1768C12.6286 23.8191 12.7085 23.4996 12.8682 23.2183C13.0315 22.9335 13.252 22.713 13.5298 22.5567C13.8111 22.397 14.1254 22.3171 14.4727 22.3171C14.879 22.3171 15.2349 22.4213 15.5405 22.6297C15.8461 22.838 16.0597 23.1263 16.1813 23.4944H15.3426C15.2592 23.3207 15.1412 23.1905 14.9884 23.1037C14.839 23.0169 14.6654 22.9735 14.4675 22.9735C14.2556 22.9735 14.0663 23.0238 13.8996 23.1245C13.7364 23.2218 13.6079 23.3607 13.5142 23.5413C13.4239 23.7218 13.3787 23.9337 13.3787 24.1768C13.3787 24.4164 13.4239 24.6282 13.5142 24.8123C13.6079 24.9929 13.7364 25.1335 13.8996 25.2342C14.0663 25.3315 14.2556 25.3801 14.4675 25.3801C14.6654 25.3801 14.839 25.3367 14.9884 25.2499C15.1412 25.1596 15.2592 25.0276 15.3426 24.854H16.1813C16.0597 25.2256 15.8461 25.5155 15.5405 25.7239C15.2384 25.9288 14.8824 26.0313 14.4727 26.0313C14.1254 26.0313 13.8111 25.9531 13.5298 25.7968C13.252 25.6371 13.0315 25.4166 12.8682 25.1353C12.7085 24.854 12.6286 24.5345 12.6286 24.1768ZM21.904 22.364V26H21.1747V24.4529H19.6171V26H18.8879V22.364H19.6171V23.859H21.1747V22.364H21.904ZM27.8153 26H27.0861L25.4347 23.5048V26H24.7055V22.3588H25.4347L27.0861 24.8592V22.3588H27.8153V26ZM32.3075 26.0365C31.9672 26.0365 31.6546 25.9566 31.3698 25.7968C31.0851 25.6371 30.8593 25.4166 30.6926 25.1353C30.5259 24.8505 30.4426 24.5293 30.4426 24.1716C30.4426 23.8174 30.5259 23.4996 30.6926 23.2183C30.8593 22.9335 31.0851 22.7113 31.3698 22.5515C31.6546 22.3918 31.9672 22.3119 32.3075 22.3119C32.6513 22.3119 32.9638 22.3918 33.2451 22.5515C33.5299 22.7113 33.7539 22.9335 33.9171 23.2183C34.0838 23.4996 34.1672 23.8174 34.1672 24.1716C34.1672 24.5293 34.0838 24.8505 33.9171 25.1353C33.7539 25.4166 33.5299 25.6371 33.2451 25.7968C32.9604 25.9566 32.6478 26.0365 32.3075 26.0365ZM32.3075 25.3853C32.5263 25.3853 32.719 25.3367 32.8857 25.2395C33.0524 25.1387 33.1826 24.9964 33.2764 24.8123C33.3702 24.6282 33.417 24.4147 33.417 24.1716C33.417 23.9285 33.3702 23.7166 33.2764 23.5361C33.1826 23.352 33.0524 23.2113 32.8857 23.1141C32.719 23.0169 32.5263 22.9683 32.3075 22.9683C32.0887 22.9683 31.8942 23.0169 31.7241 23.1141C31.5574 23.2113 31.4271 23.352 31.3334 23.5361C31.2396 23.7166 31.1927 23.9285 31.1927 24.1716C31.1927 24.4147 31.2396 24.6282 31.3334 24.8123C31.4271 24.9964 31.5574 25.1387 31.7241 25.2395C31.8942 25.3367 32.0887 25.3853 32.3075 25.3853ZM37.5227 25.4218H38.7208V26H36.7934V22.364H37.5227V25.4218ZM42.9558 26.0365C42.6155 26.0365 42.3029 25.9566 42.0181 25.7968C41.7334 25.6371 41.5076 25.4166 41.3409 25.1353C41.1743 24.8505 41.0909 24.5293 41.0909 24.1716C41.0909 23.8174 41.1743 23.4996 41.3409 23.2183C41.5076 22.9335 41.7334 22.7113 42.0181 22.5515C42.3029 22.3918 42.6155 22.3119 42.9558 22.3119C43.2996 22.3119 43.6122 22.3918 43.8934 22.5515C44.1782 22.7113 44.4022 22.9335 44.5654 23.2183C44.7321 23.4996 44.8155 23.8174 44.8155 24.1716C44.8155 24.5293 44.7321 24.8505 44.5654 25.1353C44.4022 25.4166 44.1782 25.6371 43.8934 25.7968C43.6087 25.9566 43.2961 26.0365 42.9558 26.0365ZM42.9558 25.3853C43.1746 25.3853 43.3673 25.3367 43.534 25.2395C43.7007 25.1387 43.8309 24.9964 43.9247 24.8123C44.0185 24.6282 44.0654 24.4147 44.0654 24.1716C44.0654 23.9285 44.0185 23.7166 43.9247 23.5361C43.8309 23.352 43.7007 23.2113 43.534 23.1141C43.3673 23.0169 43.1746 22.9683 42.9558 22.9683C42.737 22.9683 42.5425 23.0169 42.3724 23.1141C42.2057 23.2113 42.0754 23.352 41.9817 23.5361C41.8879 23.7166 41.841 23.9285 41.841 24.1716C41.841 24.4147 41.8879 24.6282 41.9817 24.8123C42.0754 24.9964 42.2057 25.1387 42.3724 25.2395C42.5425 25.3367 42.737 25.3853 42.9558 25.3853ZM49.9734 23.4579C49.89 23.3051 49.7754 23.1888 49.6296 23.1089C49.4837 23.029 49.3136 22.9891 49.1191 22.9891C48.9038 22.9891 48.7128 23.0377 48.5461 23.1349C48.3794 23.2322 48.2491 23.3711 48.1554 23.5517C48.0616 23.7323 48.0147 23.9406 48.0147 24.1768C48.0147 24.4199 48.0616 24.6317 48.1554 24.8123C48.2526 24.9929 48.3863 25.1318 48.5565 25.229C48.7266 25.3263 48.9246 25.3749 49.1503 25.3749C49.4282 25.3749 49.6556 25.302 49.8327 25.1561C50.0098 25.0068 50.1262 24.8002 50.1817 24.5362H48.9315V23.9788H50.9006V24.6144C50.852 24.8679 50.7478 25.1023 50.5881 25.3176C50.4283 25.5329 50.2217 25.7065 49.9682 25.8385C49.7181 25.967 49.4368 26.0313 49.1243 26.0313C48.7735 26.0313 48.4558 25.9531 48.171 25.7968C47.8897 25.6371 47.6674 25.4166 47.5042 25.1353C47.3445 24.854 47.2646 24.5345 47.2646 24.1768C47.2646 23.8191 47.3445 23.4996 47.5042 23.2183C47.6674 22.9335 47.8897 22.713 48.171 22.5567C48.4558 22.397 48.7718 22.3171 49.1191 22.3171C49.5289 22.3171 49.8848 22.4178 50.187 22.6192C50.4891 22.8172 50.6975 23.0967 50.8121 23.4579H49.9734ZM54.2531 22.364V26H53.5238V22.364H54.2531ZM57.7866 22.9526V23.8642H59.0108V24.4425H57.7866V25.4062H59.1671V26H57.0573V22.3588H59.1671V22.9526H57.7866ZM63.1689 26.0365C62.9154 26.0365 62.6862 25.9931 62.4813 25.9062C62.2799 25.8194 62.1201 25.6944 62.002 25.5312C61.884 25.368 61.8232 25.1752 61.8197 24.953H62.6011C62.6115 25.1023 62.6636 25.2204 62.7574 25.3072C62.8546 25.394 62.9866 25.4374 63.1533 25.4374C63.3234 25.4374 63.4571 25.3975 63.5544 25.3176C63.6516 25.2342 63.7002 25.1266 63.7002 24.9946C63.7002 24.887 63.6672 24.7984 63.6013 24.729C63.5353 24.6595 63.4519 24.6057 63.3512 24.5675C63.254 24.5258 63.1185 24.4807 62.9449 24.432C62.7087 24.3626 62.516 24.2949 62.3667 24.2289C62.2208 24.1594 62.0941 24.057 61.9864 23.9215C61.8822 23.7826 61.8301 23.5986 61.8301 23.3694C61.8301 23.154 61.884 22.9665 61.9916 22.8068C62.0993 22.647 62.2503 22.5255 62.4448 22.4421C62.6393 22.3553 62.8616 22.3119 63.1116 22.3119C63.4867 22.3119 63.7905 22.4039 64.0232 22.588C64.2594 22.7686 64.3896 23.0221 64.4139 23.3485H63.6117C63.6047 23.2235 63.5509 23.1211 63.4502 23.0412C63.353 22.9578 63.2227 22.9162 63.0595 22.9162C62.9171 22.9162 62.8025 22.9526 62.7157 23.0256C62.6323 23.0985 62.5907 23.2044 62.5907 23.3433C62.5907 23.4406 62.6219 23.5222 62.6844 23.5881C62.7504 23.6507 62.8303 23.7027 62.9241 23.7444C63.0213 23.7826 63.1567 23.8278 63.3304 23.8799C63.5665 23.9493 63.7593 24.0188 63.9086 24.0882C64.0579 24.1577 64.1864 24.2619 64.2941 24.4008C64.4017 24.5397 64.4556 24.722 64.4556 24.9477C64.4556 25.1422 64.4052 25.3228 64.3045 25.4895C64.2038 25.6562 64.0562 25.7899 63.8617 25.8906C63.6672 25.9878 63.4363 26.0365 63.1689 26.0365Z" fill="#111111"/>
</svg>
