<svg width="29" height="29" viewBox="0 0 29 29" fill="none" xmlns="http://www.w3.org/2000/svg">
<rect width="28.8427" height="28.8427" rx="2.38764" fill="#4786FF"/>
<path d="M11.944 7.45151C15.8411 8.33262 17.9374 10.9956 17.9224 14.962C17.9142 17.1383 17.921 19.3147 17.921 21.529C16.9851 21.529 16.1022 21.529 15.1262 21.529C15.1262 20.9973 15.1262 20.4698 15.1262 19.9423C15.1261 18.0895 15.1451 16.2365 15.1207 14.384C15.0929 12.2768 13.473 10.4582 11.4567 10.221C9.20477 9.95603 7.23652 11.2451 6.67931 13.3498C6.1213 15.4575 7.15968 17.5799 9.1676 18.425C9.37531 18.5124 9.59594 18.5691 9.88463 18.6646C9.88463 17.2415 9.88463 15.8949 9.88463 14.5076C10.7257 14.5076 11.5099 14.5076 12.3294 14.5076C12.3294 16.8327 12.3294 19.1483 12.3294 21.4639C8.1027 22.157 4.76322 19.6337 3.91139 16.0318C3.02218 12.2717 5.44696 8.38623 9.22937 7.57876C10.0844 7.39624 10.9963 7.48048 11.944 7.45151Z" fill="white"/>
<path d="M25.016 20.3547C25.0159 20.7708 25.0159 21.1196 25.0159 21.5193C24.0878 21.5193 23.1901 21.5193 22.2139 21.5193C22.2139 21.0408 22.2128 20.5791 22.2141 20.1174C22.2194 18.1949 22.2285 16.2723 22.2307 14.3498C22.234 11.39 20.2395 8.67998 17.3569 7.72022C17.1848 7.66291 17.0125 7.60633 16.7888 7.53239C20.2232 6.69521 24.019 9.21777 24.8373 12.8479C24.9598 13.3913 25.0075 13.9612 25.0131 14.5196C25.0324 16.442 25.0177 18.3648 25.016 20.3547Z" fill="white"/>
</svg>
